<?xml version="1.0" encoding="utf-8"?>
<!-- Generator: Adobe Illustrator 25.3.0, SVG Export Plug-In . SVG Version: 6.00 Build 0)  -->
<svg version="1.1" id="Layer_1" xmlns="http://www.w3.org/2000/svg" xmlns:xlink="http://www.w3.org/1999/xlink" x="0px" y="0px"
	 viewBox="0 0 252 144" style="enable-background:new 0 0 252 144;" xml:space="preserve">
<style type="text/css">
	.st0{fill:none;}
	.st1{fill:none;stroke:#5CFFEB;stroke-width:0.5;stroke-miterlimit:10;}
	.st2{fill:#FFFFFF;}
</style>
<rect class="st0" width="252" height="144"/>
<rect x="105.2" y="12.9" transform="matrix(0.7071 -0.7071 0.7071 0.7071 15.216 93.7734)" class="st1" width="31.3" height="31.3"/>
<rect x="112.6" y="12.9" transform="matrix(0.7071 -0.7071 0.7071 0.7071 17.3626 99.0388)" class="st1" width="31.3" height="31.3"/>
<rect x="94.4" y="17.5" transform="matrix(0.7071 -0.7071 0.7071 0.7071 10.6726 82.8825)" class="st1" width="22.1" height="22.1"/>
<rect x="132.8" y="17.5" transform="matrix(0.7071 -0.7071 0.7071 0.7071 21.9226 110.0483)" class="st1" width="22.1" height="22.1"/>
<g>
	<path class="st2" d="M57.7,96.5l-8.2-27.7H53l6.8,24.7l6.5-24.7h3.8l6.5,24.7l6.8-24.7h3.3l-8.1,27.7h-4.2l-4.9-18l-1.4-6.3h0
		l-1.4,6.3l-4.9,18H57.7z"/>
	<path class="st2" d="M97.2,96.9c-2,0-3.8-0.4-5.3-1.3c-1.6-0.9-2.8-2.1-3.6-3.8c-0.9-1.6-1.3-3.6-1.3-5.9c0-2.3,0.4-4.2,1.3-5.9
		c0.9-1.6,2.1-2.9,3.6-3.8c1.5-0.9,3.2-1.3,5.2-1.3c2,0,3.6,0.4,5,1.3c1.4,0.8,2.4,2,3.2,3.4c0.7,1.4,1.1,3.1,1.1,4.9
		c0,0.5,0,0.9,0,1.3c0,0.4-0.1,0.7-0.1,1h-17v-3h15.5l-1.7,0.3c0-2-0.6-3.6-1.7-4.7c-1.1-1.1-2.6-1.6-4.3-1.6
		c-1.4,0-2.6,0.3-3.5,0.9c-1,0.6-1.8,1.5-2.3,2.7c-0.5,1.2-0.8,2.6-0.8,4.3c0,1.7,0.3,3.1,0.8,4.3c0.6,1.2,1.4,2.1,2.4,2.8
		c1,0.6,2.2,0.9,3.7,0.9c1.5,0,2.8-0.3,3.8-0.9c1-0.6,1.7-1.4,2.3-2.4l2.6,1.6c-0.5,1-1.2,1.8-2,2.5c-0.8,0.7-1.8,1.2-2.9,1.6
		C99.8,96.7,98.5,96.9,97.2,96.9z"/>
	<path class="st2" d="M120.5,96.9c-1.2,0-2.3-0.2-3.3-0.6s-1.9-1-2.6-1.8c-0.7-0.8-1.3-1.6-1.6-2.6l0.5-0.6l-0.3,5.1h-2.9V65.9h3.4
		v14.4l-0.4-0.6c0.6-1.3,1.5-2.4,2.8-3.3c1.3-0.9,2.8-1.3,4.6-1.3c1.7,0,3.3,0.4,4.8,1.3c1.5,0.9,2.6,2.1,3.5,3.7
		c0.9,1.6,1.3,3.6,1.3,5.9c0,2.3-0.4,4.2-1.3,5.9c-0.9,1.6-2.1,2.9-3.5,3.8C123.8,96.5,122.2,96.9,120.5,96.9z M120.1,94
		c2.1,0,3.7-0.7,4.9-2.2s1.7-3.4,1.7-5.8c0-2.4-0.6-4.3-1.7-5.8c-1.1-1.5-2.8-2.2-4.8-2.2c-1.3,0-2.5,0.3-3.5,1s-1.8,1.6-2.3,2.8
		c-0.6,1.2-0.8,2.6-0.8,4.2c0,1.6,0.3,3,0.8,4.2c0.5,1.2,1.3,2.1,2.3,2.8C117.7,93.7,118.8,94,120.1,94z"/>
	<path class="st2" d="M143.3,68.8c4.3,0,7.7,1.2,10.2,3.6c2.5,2.4,3.7,5.8,3.7,10.3c0,4.5-1.2,7.9-3.7,10.3
		c-2.5,2.4-5.9,3.6-10.2,3.6h-8.9V68.8H143.3z M143.6,93.4c3.2,0,5.6-0.9,7.4-2.8c1.8-1.9,2.7-4.5,2.7-7.9c0-3.4-0.9-6-2.7-7.9
		c-1.8-1.9-4.2-2.8-7.4-2.8h-5.9v21.4H143.6z"/>
	<path class="st2" d="M170.3,96.9c-2,0-3.8-0.4-5.3-1.3s-2.8-2.1-3.6-3.8c-0.9-1.6-1.3-3.6-1.3-5.9c0-2.3,0.4-4.2,1.3-5.9
		c0.9-1.6,2.1-2.9,3.6-3.8c1.5-0.9,3.2-1.3,5.2-1.3c2,0,3.6,0.4,5,1.3c1.4,0.8,2.4,2,3.2,3.4c0.7,1.4,1.1,3.1,1.1,4.9
		c0,0.5,0,0.9,0,1.3c0,0.4-0.1,0.7-0.1,1h-17v-3h15.5l-1.7,0.3c0-2-0.6-3.6-1.7-4.7c-1.1-1.1-2.6-1.6-4.3-1.6
		c-1.4,0-2.6,0.3-3.5,0.9c-1,0.6-1.8,1.5-2.3,2.7c-0.5,1.2-0.8,2.6-0.8,4.3c0,1.7,0.3,3.1,0.8,4.3c0.6,1.2,1.4,2.1,2.4,2.8
		s2.2,0.9,3.7,0.9c1.5,0,2.8-0.3,3.8-0.9c1-0.6,1.7-1.4,2.3-2.4l2.6,1.6c-0.5,1-1.2,1.8-2,2.5s-1.8,1.2-2.9,1.6
		C172.9,96.7,171.7,96.9,170.3,96.9z"/>
	<path class="st2" d="M196.7,75.5h3.5l-8.7,21h-3.4l-8.7-21h3.8l6.6,17.6L196.7,75.5z"/>
	<path class="st2" d="M74.9,125.4c-0.6,1.6-1.4,2.9-2.5,4.1c-1.1,1.1-2.4,2-3.8,2.6c-1.5,0.6-3.1,0.9-4.8,0.9
		c-2.6,0-4.9-0.6-6.8-1.7c-1.9-1.2-3.4-2.8-4.5-4.9c-1.1-2.1-1.6-4.7-1.6-7.6c0-2.9,0.5-5.5,1.6-7.6c1-2.1,2.5-3.8,4.5-4.9
		c1.9-1.2,4.2-1.7,6.7-1.7c1.8,0,3.4,0.2,4.8,0.7c1.4,0.5,2.6,1.2,3.6,2.2c1,1,1.8,2.1,2.4,3.5l-3.3,1.6c-0.6-1.6-1.5-2.8-2.7-3.6
		c-1.2-0.8-2.7-1.2-4.5-1.2c-1.9,0-3.5,0.4-5,1.3c-1.4,0.9-2.5,2.1-3.3,3.8c-0.8,1.7-1.2,3.7-1.2,6c0,2.3,0.4,4.3,1.1,6
		s1.8,2.9,3.2,3.8c1.4,0.9,3.1,1.3,5,1.3c1.8,0,3.5-0.5,4.8-1.4c1.4-0.9,2.4-2.3,3-4.2L74.9,125.4z"/>
	<path class="st2" d="M87,111.1c2,0,3.7,0.4,5.3,1.3c1.5,0.9,2.7,2.1,3.6,3.8c0.9,1.6,1.3,3.6,1.3,5.9s-0.4,4.2-1.3,5.9
		c-0.9,1.6-2.1,2.9-3.6,3.8c-1.5,0.9-3.3,1.3-5.3,1.3c-2,0-3.7-0.4-5.2-1.3c-1.5-0.9-2.7-2.1-3.6-3.8c-0.9-1.6-1.3-3.6-1.3-5.9
		s0.4-4.2,1.3-5.9c0.9-1.6,2.1-2.9,3.6-3.8C83.3,111.5,85,111.1,87,111.1z M87,114c-1.4,0-2.6,0.3-3.7,1c-1,0.6-1.8,1.6-2.3,2.8
		c-0.5,1.2-0.8,2.6-0.8,4.3c0,1.7,0.3,3.1,0.8,4.3c0.5,1.2,1.3,2.1,2.3,2.8c1,0.6,2.2,1,3.7,1c1.4,0,2.6-0.3,3.7-1
		c1-0.6,1.8-1.6,2.3-2.8s0.8-2.6,0.8-4.3c0-1.7-0.3-3.1-0.8-4.3s-1.3-2.1-2.3-2.8C89.6,114.3,88.4,114,87,114z"/>
	<path class="st2" d="M101,132.5v-21h2.9l0.3,4.7l-0.5-0.5c0.4-1.1,1-2,1.8-2.7c0.8-0.7,1.6-1.2,2.6-1.5c1-0.3,2-0.5,3.1-0.5
		c1.5,0,2.9,0.3,4.1,0.9s2.2,1.4,3,2.6c0.7,1.2,1.1,2.7,1.1,4.5v13.4h-3.4v-12.3c0-2.3-0.5-3.9-1.5-4.9c-1-0.9-2.2-1.4-3.7-1.4
		c-1,0-2,0.2-3,0.7c-1,0.5-1.8,1.2-2.5,2.3c-0.7,1.1-1,2.5-1,4.3v11.2H101z"/>
	<path class="st2" d="M124.6,132.5v-21h2.9l0.3,4.7l-0.5-0.5c0.4-1.1,1-2,1.8-2.7c0.8-0.7,1.6-1.2,2.6-1.5c1-0.3,2-0.5,3.1-0.5
		c1.5,0,2.9,0.3,4.1,0.9s2.2,1.4,3,2.6c0.7,1.2,1.1,2.7,1.1,4.5v13.4h-3.4v-12.3c0-2.3-0.5-3.9-1.5-4.9c-1-0.9-2.2-1.4-3.7-1.4
		c-1,0-2,0.2-3,0.7c-1,0.5-1.8,1.2-2.5,2.3c-0.7,1.1-1,2.5-1,4.3v11.2H124.6z"/>
	<path class="st2" d="M156.9,132.9c-2,0-3.8-0.4-5.3-1.3s-2.8-2.1-3.6-3.8c-0.9-1.6-1.3-3.6-1.3-5.9s0.4-4.2,1.3-5.9
		c0.9-1.6,2.1-2.9,3.6-3.8c1.5-0.9,3.2-1.3,5.2-1.3c2,0,3.6,0.4,5,1.3s2.4,2,3.2,3.4c0.7,1.4,1.1,3.1,1.1,4.9c0,0.5,0,0.9,0,1.3
		c0,0.4-0.1,0.7-0.1,1h-17v-3h15.5l-1.7,0.3c0-2-0.6-3.6-1.7-4.7c-1.1-1.1-2.6-1.6-4.3-1.6c-1.4,0-2.6,0.3-3.5,0.9s-1.8,1.5-2.3,2.7
		s-0.8,2.6-0.8,4.3c0,1.7,0.3,3.1,0.8,4.3c0.6,1.2,1.4,2.1,2.4,2.8s2.2,0.9,3.7,0.9c1.5,0,2.8-0.3,3.8-0.9c1-0.6,1.7-1.4,2.3-2.4
		l2.6,1.6c-0.5,1-1.2,1.8-2,2.5s-1.8,1.2-2.9,1.6C159.5,132.7,158.3,132.9,156.9,132.9z"/>
	<path class="st2" d="M178.6,111.1c1.5,0,2.7,0.2,3.8,0.7c1.1,0.4,2.1,1.1,2.9,1.9c0.8,0.8,1.5,1.8,2,3l-3.2,1.5
		c-0.4-1.3-1.1-2.4-2-3.1c-0.9-0.7-2.1-1.1-3.5-1.1c-1.4,0-2.6,0.3-3.6,0.9s-1.8,1.5-2.3,2.7s-0.8,2.6-0.8,4.3
		c0,1.7,0.3,3.1,0.8,4.3s1.3,2.1,2.3,2.8s2.2,0.9,3.6,0.9c1.1,0,2-0.2,2.8-0.5c0.8-0.3,1.5-0.8,2-1.5c0.5-0.6,0.9-1.4,1.1-2.4
		l3.1,1.1c-0.5,1.3-1.1,2.4-2,3.3c-0.8,0.9-1.8,1.6-3,2.1c-1.2,0.5-2.5,0.7-4,0.7c-2,0-3.7-0.4-5.2-1.3s-2.7-2.1-3.6-3.8
		c-0.9-1.6-1.3-3.6-1.3-5.9s0.4-4.2,1.3-5.9c0.9-1.6,2.1-2.9,3.6-3.8C174.9,111.5,176.7,111.1,178.6,111.1z"/>
	<path class="st2" d="M203.6,111.5v2.9h-15.2v-2.9H203.6z M196,105.5v21.2c0,1,0.3,1.8,0.9,2.3s1.3,0.8,2.3,0.8
		c0.8,0,1.5-0.1,2.1-0.4c0.6-0.3,1.1-0.7,1.6-1.1l1.2,2.8c-0.6,0.6-1.4,1-2.3,1.4s-1.9,0.5-3,0.5c-1.1,0-2.1-0.2-3-0.6
		c-0.9-0.4-1.7-1-2.2-1.8c-0.5-0.8-0.8-1.9-0.9-3.3v-20.8L196,105.5z"/>
</g>
</svg>
